<svg xmlns="http://www.w3.org/2000/svg" xmlns:xlink="http://www.w3.org/1999/xlink" width="618" height="690" viewBox="0 0 618 690">
  <defs>
    <clipPath id="clip-path">
      <rect id="Mask" width="618" height="690" transform="translate(698 213.144)" fill="none"/>
    </clipPath>
    <clipPath id="clip-path-2">
      <rect id="Rectangle_1" data-name="Rectangle 1" width="333" height="730" transform="translate(0 -0.051)" fill="none"/>
    </clipPath>
    <clipPath id="clip-path-3">
      <rect id="Rectangle_2" data-name="Rectangle 2" width="360" height="729" transform="translate(0 0.179)" fill="none"/>
    </clipPath>
  </defs>
  <g id="BG_Device" data-name="BG Device" transform="translate(-698 -213.144)" clip-path="url(#clip-path)">
    <g id="Device_Samsung_Galaxy_S8" data-name="Device / Samsung Galaxy S8" transform="translate(945 297.194)" clip-path="url(#clip-path-2)">
      <g id="Device_Samsung_Galaxy_S8-2" data-name="Device / Samsung Galaxy S8" transform="translate(0 0)">
        <g id="Body">
          <path id="Path_1" data-name="Path 1" d="M283.119,729.277H49.881a45.347,45.347,0,0,1-18.122-3.745,46.358,46.358,0,0,1-14.8-10.213,47.574,47.574,0,0,1-9.978-15.148,48.32,48.32,0,0,1-3.659-18.549V313.7H1.471A.983.983,0,0,1,.5,312.7V269.377a.983.983,0,0,1,.971-.993H3.322V225.367H1.471a.983.983,0,0,1-.971-.993V126.023a.983.983,0,0,1,.971-.994H3.322V48.156a48.323,48.323,0,0,1,3.659-18.55,47.576,47.576,0,0,1,9.978-15.148,46.359,46.359,0,0,1,14.8-10.213A45.347,45.347,0,0,1,49.881.5H283.119a45.347,45.347,0,0,1,18.122,3.745,46.359,46.359,0,0,1,14.8,10.213,47.576,47.576,0,0,1,9.978,15.148,48.323,48.323,0,0,1,3.659,18.55V227.839h1.852a.983.983,0,0,1,.971.992v43.326a.983.983,0,0,1-.971.994h-1.852v408.47a48.32,48.32,0,0,1-3.659,18.549,47.575,47.575,0,0,1-9.978,15.148,46.358,46.358,0,0,1-14.8,10.213A45.347,45.347,0,0,1,283.119,729.277Z" transform="translate(0 0.012)" fill="#f9fbfc"/>
          <path id="Path_2" data-name="Path 2" d="M283.119,728.777a44.861,44.861,0,0,0,17.928-3.7,45.864,45.864,0,0,0,14.641-10.1,47.065,47.065,0,0,0,9.871-14.985,47.8,47.8,0,0,0,3.619-18.35V272.651h2.352a.477.477,0,0,0,.471-.482V228.843a.476.476,0,0,0-.471-.481h-2.352V48.168a47.8,47.8,0,0,0-3.619-18.351,47.067,47.067,0,0,0-9.871-14.986,45.864,45.864,0,0,0-14.641-10.1,44.86,44.86,0,0,0-17.928-3.7H49.881a44.86,44.86,0,0,0-17.928,3.7,45.864,45.864,0,0,0-14.641,10.1A47.067,47.067,0,0,0,7.441,29.818,47.8,47.8,0,0,0,3.822,48.168v77.385H1.471a.477.477,0,0,0-.471.482v98.351a.477.477,0,0,0,.471.482H3.822v44.039H1.471a.477.477,0,0,0-.471.482v43.326a.477.477,0,0,0,.471.482H3.822V681.633a47.8,47.8,0,0,0,3.619,18.35,47.065,47.065,0,0,0,9.871,14.985,45.864,45.864,0,0,0,14.641,10.1,44.861,44.861,0,0,0,17.928,3.7H283.119m0,1.024H49.881c-25.989,0-47.058-21.565-47.058-48.167V314.22H1.471A1.489,1.489,0,0,1,0,312.715V269.389a1.488,1.488,0,0,1,1.471-1.505H2.822V225.891H1.471A1.489,1.489,0,0,1,0,224.386V126.035a1.488,1.488,0,0,1,1.471-1.505H2.822V48.168C2.822,21.565,23.891,0,49.881,0H283.119c25.989,0,47.058,21.565,47.058,48.168V227.339h1.352a1.488,1.488,0,0,1,1.471,1.5V272.17a1.488,1.488,0,0,1-1.471,1.505h-1.352V681.633C330.178,708.235,309.109,729.8,283.119,729.8Z" transform="translate(0 0)" fill="#026fc2"/>
        </g>
        <g id="Screen" transform="translate(12.275 40.859)" fill="#fff" stroke="#026fc2" stroke-miterlimit="10" stroke-width="1">
          <rect width="308" height="648.939" rx="26.471" stroke="none"/>
          <rect x="0.5" y="0.5" width="307" height="647.939" rx="25.971" fill="none"/>
        </g>
      </g>
    </g>
    <g id="Device_iPhone_X" data-name="Device / iPhone X" transform="translate(736 460.964)" clip-path="url(#clip-path-3)">
      <g id="Device_iPhone_X-2" data-name="Device / iPhone X">
        <rect id="base" width="353.41" height="728.777" rx="60" stroke-width="1" fill="#f9fbfc" stroke="#026fc2" stroke-miterlimit="10" transform="translate(3.295)"/>
        <g id="buttons" transform="translate(0 96.778)">
          <path id="lock" d="M0,0H0A3.34,3.34,0,0,1,3.3,3.378V82.464A3.34,3.34,0,0,1,0,85.842H0Z" transform="translate(356.705 69.848)" fill="#026fc2"/>
          <path id="switch" d="M3.3,0h0V29.454h0A3.34,3.34,0,0,1,0,26.076V3.378A3.34,3.34,0,0,1,3.3,0Z" fill="#026fc2"/>
          <path id="vol-up" d="M3.3,0h0V53.859h0A3.34,3.34,0,0,1,0,50.481V3.378A3.34,3.34,0,0,1,3.3,0Z" transform="translate(0 53.018)" fill="#026fc2"/>
          <path id="vol-down" d="M3.3,0h0V53.859h0A3.34,3.34,0,0,1,0,50.481V3.378A3.34,3.34,0,0,1,3.3,0Z" transform="translate(0 116.975)" fill="#026fc2"/>
        </g>
        <g id="SCREEN-2" data-name="SCREEN" transform="translate(25 22.519)">
          <path id="Path_3" data-name="Path 3" d="M269.341,694.858H40a39.418,39.418,0,0,1-15.76-3.26,40.352,40.352,0,0,1-12.874-8.886,41.411,41.411,0,0,1-8.682-13.177A42,42,0,0,1-.5,653.4V51.647A42,42,0,0,1,2.684,35.516a41.41,41.41,0,0,1,8.682-13.177A40.353,40.353,0,0,1,24.24,13.453,39.418,39.418,0,0,1,40,10.193H64.343a5.538,5.538,0,0,1,2.285.58,4.3,4.3,0,0,1,2.339,4.142V22.9a26.636,26.636,0,0,0,8.833,8.42,23.214,23.214,0,0,0,11.667,3.291H221.133a18.726,18.726,0,0,0,7.487-1.548,19.172,19.172,0,0,0,6.117-4.222,19.674,19.674,0,0,0,4.125-6.261,19.954,19.954,0,0,0,1.513-7.663,4.3,4.3,0,0,1,2.339-4.141,5.537,5.537,0,0,1,2.285-.58H277.17l.148,1-4.4,1.394a37.647,37.647,0,0,1,13.8,2.989,37.153,37.153,0,0,1,12.073,8.265,39.448,39.448,0,0,1,11.056,27.806V653.4a42,42,0,0,1-3.184,16.131,41.411,41.411,0,0,1-8.682,13.177A40.353,40.353,0,0,1,285.1,691.6,39.418,39.418,0,0,1,269.341,694.858Z" transform="translate(1 -9.681)" fill="#fff"/>
          <path id="Path_4" data-name="Path 4" d="M40,10.717c-22.08,0-40,18.342-40,40.943V653.416c0,22.6,17.92,40.943,40,40.943H269.341c22.08,0,40-18.342,40-40.943V51.659c0-21.767-16.59-38.564-37.5-38.562-.8,0-1.611.025-2.423.075l7.757-2.455H245a4.066,4.066,0,0,0-4.125,4.21,19.985,19.985,0,0,1-19.741,20.206H89.468c-8.359,0-16.415-4.934-21-12.07v12.07l-3.578-21.18a24.423,24.423,0,0,0,3.578,9.111V14.926a4.066,4.066,0,0,0-4.125-4.21H40m0-1.024H64.343a5.97,5.97,0,0,1,2.508.634,4.627,4.627,0,0,1,1.8,1.6,5.393,5.393,0,0,1,.813,3v7.827a26.133,26.133,0,0,0,8.581,8.132,22.722,22.722,0,0,0,11.419,3.224H221.133a18.236,18.236,0,0,0,7.292-1.508,18.673,18.673,0,0,0,5.958-4.113,19.164,19.164,0,0,0,4.018-6.1,19.434,19.434,0,0,0,1.473-7.464,5.393,5.393,0,0,1,.813-3,4.627,4.627,0,0,1,1.8-1.6A5.97,5.97,0,0,1,245,9.693h38.791l-6.324,2-1.783.564a37.818,37.818,0,0,1,23.456,11.232,39.964,39.964,0,0,1,11.2,28.168V653.416a42.523,42.523,0,0,1-3.224,16.331,41.918,41.918,0,0,1-8.789,13.339,40.848,40.848,0,0,1-13.032,9,39.906,39.906,0,0,1-15.955,3.3H40a39.906,39.906,0,0,1-15.955-3.3,40.848,40.848,0,0,1-13.032-9,41.918,41.918,0,0,1-8.789-13.339A42.523,42.523,0,0,1-1,653.416V51.659A42.523,42.523,0,0,1,2.224,35.329a41.918,41.918,0,0,1,8.789-13.339,40.847,40.847,0,0,1,13.032-9A39.906,39.906,0,0,1,40,9.693Z" transform="translate(1 -9.693)" fill="#026fc2"/>
        </g>
      </g>
    </g>
  </g>
</svg>
