<svg xmlns="http://www.w3.org/2000/svg" xmlns:xlink="http://www.w3.org/1999/xlink" width="1440" height="1066" viewBox="0 0 1440 1066">
  <defs>
    <style>
      .cls-1 {
        fill: none;
      }

      .cls-2, .cls-9 {
        fill: #fff;
      }

      .cls-2, .cls-7 {
        stroke: #026fc2;
      }

      .cls-2, .cls-5, .cls-7, .cls-9 {
        stroke-miterlimit: 10;
      }

      .cls-3 {
        clip-path: url(#clip-path);
      }

      .cls-4 {
        clip-path: url(#clip-path-2);
      }

      .cls-5, .cls-7 {
        fill: #f9fbfc;
      }

      .cls-6 {
        clip-path: url(#clip-path-3);
      }

      .cls-12, .cls-8 {
        fill: #026fc2;
      }

      .cls-10 {
        clip-path: url(#clip-path-4);
      }

      .cls-11, .cls-12 {
        stroke: none;
      }
    </style>
    <clipPath id="clip-path">
      <rect id="Mask" class="cls-1" width="1440" height="1066" transform="translate(0 -181)"/>
    </clipPath>
    <clipPath id="clip-path-2">
      <rect class="cls-1" width="333" height="713"/>
    </clipPath>
    <clipPath id="clip-path-3">
      <rect class="cls-1" width="360" height="712"/>
    </clipPath>
    <clipPath id="clip-path-4">
      <path id="SCREEN" class="cls-2" d="M0,50.693H0a40.015,40.015,0,0,1,40-40H64.343s4.125,0,4.125,4.113V34.547L64.89,13.854c1.975,11.423,12.986,20.693,24.578,20.693H221.133a19.748,19.748,0,0,0,19.741-19.741h0c0-4.113,4.125-4.113,4.125-4.113H277.17l-7.757,2.4a37.218,37.218,0,0,1,39.928,37.6V638.6h0a40.015,40.015,0,0,1-40,40H40a40.015,40.015,0,0,1-40-40Z" transform="translate(26 12.307)"/>
    </clipPath>
  </defs>
  <g id="BG_Device" data-name="BG Device" class="cls-3" transform="translate(0 181)">
    <g id="Device_Samsung_Galaxy_S8" data-name="Device / Samsung Galaxy S8" class="cls-4" transform="translate(944 345)">
      <g id="Device_Samsung_Galaxy_S8-2" data-name="Device / Samsung Galaxy S8">
        <g id="Body" class="cls-5">
          <path class="cls-11" d="M 283.1192626953125 712.4998168945312 L 49.8807258605957 712.4998168945312 C 43.59527206420898 712.4998168945312 37.49800109863281 711.2689208984375 31.75836372375488 708.8411865234375 C 26.21427345275879 706.4962768554688 21.2350902557373 703.1390991210938 16.95909118652344 698.8630981445312 C 12.68309116363525 694.5870971679688 9.325908660888672 689.60791015625 6.980999946594238 684.0638427734375 C 4.553272724151611 678.3242797851562 3.322363615036011 672.2269897460938 3.322363615036011 665.9415283203125 L 3.322363615036011 306.9864501953125 L 3.322363615036011 306.4864501953125 L 2.822363615036011 306.4864501953125 L 1.470636367797852 306.4864501953125 C 0.9354545474052429 306.4864501953125 0.5 306.0509948730469 0.5 305.5158081054688 L 0.5 263.18701171875 C 0.5 262.6518249511719 0.9354545474052429 262.2163696289062 1.470636367797852 262.2163696289062 L 2.822363615036011 262.2163696289062 L 3.322363615036011 262.2163696289062 L 3.322363615036011 261.7163696289062 L 3.322363615036011 220.6908111572266 L 3.322363615036011 220.1908111572266 L 2.822363615036011 220.1908111572266 L 1.470636367797852 220.1908111572266 C 0.9354545474052429 220.1908111572266 0.5 219.7553558349609 0.5 219.2201843261719 L 0.5 123.133544921875 C 0.5 122.5983657836914 0.9354545474052429 122.1629104614258 1.470636367797852 122.1629104614258 L 2.822363615036011 122.1629104614258 L 3.322363615036011 122.1629104614258 L 3.322363615036011 121.6629104614258 L 3.322363615036011 47.05918121337891 C 3.322363615036011 40.77345275878906 4.553272724151611 34.67609024047852 6.980999946594238 28.93636322021484 C 9.325908660888672 23.39218139648438 12.68309116363525 18.41290855407715 16.95909118652344 14.13681793212891 C 21.2350902557373 9.860726356506348 26.21427345275879 6.503635883331299 31.75836372375488 4.15863561630249 C 37.49800109863281 1.730908393859863 43.59518051147461 0.4999993443489075 49.8807258605957 0.4999993443489075 L 283.1192626953125 0.4999993443489075 C 289.4048156738281 0.4999993443489075 295.5020141601562 1.730908393859863 301.2416381835938 4.15863561630249 C 306.7857360839844 6.503635883331299 311.7649230957031 9.860726356506348 316.0409240722656 14.13681793212891 C 320.31689453125 18.41290855407715 323.6741027832031 23.39218139648438 326.0190124511719 28.93636322021484 C 328.4467163085938 34.67609024047852 329.6776428222656 40.77345275878906 329.6776428222656 47.05918121337891 L 329.6776428222656 222.1056365966797 L 329.6776428222656 222.6056365966797 L 330.1776428222656 222.6056365966797 L 331.5294494628906 222.6056365966797 C 332.0646362304688 222.6056365966797 332.5 223.0406341552734 332.5 223.5752716064453 L 332.5 265.9040832519531 C 332.5 266.4392700195312 332.0646362304688 266.8747253417969 331.5294494628906 266.8747253417969 L 330.1776428222656 266.8747253417969 L 329.6776428222656 266.8747253417969 L 329.6776428222656 267.3747253417969 L 329.6776428222656 665.9415283203125 C 329.6776428222656 672.2269897460938 328.4467163085938 678.3242797851562 326.0190124511719 684.0638427734375 C 323.6741027832031 689.60791015625 320.31689453125 694.5870971679688 316.0409240722656 698.8630981445312 C 311.7649230957031 703.1390991210938 306.7857360839844 706.4962768554688 301.2416381835938 708.8411865234375 C 295.5020141601562 711.2689208984375 289.4047241210938 712.4998168945312 283.1192626953125 712.4998168945312 Z"/>
          <path class="cls-12" d="M 283.1192626953125 711.9998168945312 C 289.3374633789062 711.9998168945312 295.3691711425781 710.7821655273438 301.0468139648438 708.3807373046875 C 306.5312805175781 706.0609130859375 311.4570922851562 702.7398071289062 315.6873779296875 698.509521484375 C 319.9176330566406 694.279296875 323.2387390136719 689.353515625 325.5585327148438 683.8690795898438 C 327.9599914550781 678.1914672851562 329.1776428222656 672.1597290039062 329.1776428222656 665.9415283203125 L 329.1776428222656 267.3747253417969 L 329.1776428222656 266.3747253417969 L 330.1776428222656 266.3747253417969 L 331.5294494628906 266.3747253417969 C 331.7889099121094 266.3747253417969 332 266.1636352539062 332 265.9040832519531 L 332 223.5752716064453 C 332 223.3162689208984 331.7889099121094 223.1056365966797 331.5294494628906 223.1056365966797 L 330.1776428222656 223.1056365966797 L 329.1776428222656 223.1056365966797 L 329.1776428222656 222.1056365966797 L 329.1776428222656 47.05918121337891 C 329.1776428222656 40.84072494506836 327.9599914550781 34.80890655517578 325.5585327148438 29.13109016418457 C 323.2387390136719 23.64654541015625 319.9176330566406 18.72072601318359 315.6873779296875 14.49036312103271 C 311.4570922851562 10.26008987426758 306.5313720703125 6.938908576965332 301.0468139648438 4.61909008026123 C 295.3691711425781 2.217635631561279 289.3374633789062 0.9999993443489075 283.1192626953125 0.9999993443489075 L 49.8807258605957 0.9999993443489075 C 43.66254425048828 0.9999993443489075 37.63081741333008 2.217635631561279 31.95318222045898 4.61909008026123 C 26.46863555908203 6.938908576965332 21.54290962219238 10.26008987426758 17.31263542175293 14.49036312103271 C 13.08236408233643 18.72072601318359 9.761272430419922 23.64654541015625 7.441454410552979 29.13109016418457 C 5.039999961853027 34.80890655517578 3.822363615036011 40.84072494506836 3.822363615036011 47.05918121337891 L 3.822363615036011 121.6629104614258 L 3.822363615036011 122.6629104614258 L 2.822363615036011 122.6629104614258 L 1.470636367797852 122.6629104614258 C 1.211090922355652 122.6629104614258 1 122.8740005493164 1 123.133544921875 L 1 219.2201843261719 C 1 219.4797210693359 1.211090922355652 219.6908111572266 1.470636367797852 219.6908111572266 L 2.822363615036011 219.6908111572266 L 3.822363615036011 219.6908111572266 L 3.822363615036011 220.6908111572266 L 3.822363615036011 261.7163696289062 L 3.822363615036011 262.7163696289062 L 2.822363615036011 262.7163696289062 L 1.470636367797852 262.7163696289062 C 1.211090922355652 262.7163696289062 1 262.9274597167969 1 263.18701171875 L 1 305.5158081054688 C 1 305.7753601074219 1.211090922355652 305.9864501953125 1.470636367797852 305.9864501953125 L 2.822363615036011 305.9864501953125 L 3.822363615036011 305.9864501953125 L 3.822363615036011 306.9864501953125 L 3.822363615036011 665.9415283203125 C 3.822363615036011 672.1597290039062 5.039999961853027 678.1914672851562 7.441454410552979 683.8690795898438 C 9.761272430419922 689.353515625 13.08236408233643 694.279296875 17.31263542175293 698.509521484375 C 21.54290962219238 702.7398071289062 26.46872711181641 706.0609130859375 31.95318222045898 708.3807373046875 C 37.63081741333008 710.7821655273438 43.66254425048828 711.9998168945312 49.8807258605957 711.9998168945312 L 283.1192626953125 711.9998168945312 M 283.1192626953125 712.9998168945312 L 49.8807258605957 712.9998168945312 C 23.8913631439209 712.9998168945312 2.822363615036011 691.9308471679688 2.822363615036011 665.9415283203125 L 2.822363615036011 306.9864501953125 L 1.470636367797852 306.9864501953125 C 0.6588181853294373 306.9864501953125 0 306.32763671875 0 305.5158081054688 L 0 263.18701171875 C 0 262.374267578125 0.6588181853294373 261.7163696289062 1.470636367797852 261.7163696289062 L 2.822363615036011 261.7163696289062 L 2.822363615036011 220.6908111572266 L 1.470636367797852 220.6908111572266 C 0.6588181853294373 220.6908111572266 0 220.0319976806641 0 219.2201843261719 L 0 123.133544921875 C 0 122.3208160400391 0.6588181853294373 121.6629104614258 1.470636367797852 121.6629104614258 L 2.822363615036011 121.6629104614258 L 2.822363615036011 47.05918121337891 C 2.822363615036011 21.06900024414062 23.8913631439209 -6.436434318857209e-07 49.8807258605957 -6.436434318857209e-07 L 283.1192626953125 -6.436434318857209e-07 C 309.108642578125 -6.436434318857209e-07 330.1776428222656 21.06900024414062 330.1776428222656 47.05918121337891 L 330.1776428222656 222.1056365966797 L 331.5294494628906 222.1056365966797 C 332.3411865234375 222.1056365966797 333 222.7635498046875 333 223.5752716064453 L 333 265.9040832519531 C 333 266.7168273925781 332.3411865234375 267.3747253417969 331.5294494628906 267.3747253417969 L 330.1776428222656 267.3747253417969 L 330.1776428222656 665.9415283203125 C 330.1776428222656 691.9308471679688 309.108642578125 712.9998168945312 283.1192626953125 712.9998168945312 Z"/>
        </g>
        <g id="Screen-2" data-name="Screen" class="cls-2" transform="translate(12.275 39.918)">
          <rect class="cls-11" width="308" height="634" rx="26.471"/>
          <rect class="cls-1" x="0.5" y="0.5" width="307" height="633" rx="25.971"/>
        </g>
      </g>
    </g>
    <g id="Device_iPhone_X" data-name="Device / iPhone X" class="cls-6" transform="translate(735 505)">
      <g id="Device_iPhone_X-2" data-name="Device / iPhone X">
        <rect id="base" class="cls-7" width="353.41" height="712" rx="60" transform="translate(3.295)"/>
        <g id="buttons" transform="translate(0 94.55)">
          <path id="lock" class="cls-8" d="M0,0H0A3.3,3.3,0,0,1,3.3,3.3V80.566a3.3,3.3,0,0,1-3.3,3.3H0a0,0,0,0,1,0,0V0A0,0,0,0,1,0,0Z" transform="translate(356.705 68.24)"/>
          <path id="switch" class="cls-8" d="M3.3,0h0a0,0,0,0,1,0,0V28.776a0,0,0,0,1,0,0h0a3.3,3.3,0,0,1-3.3-3.3V3.3A3.3,3.3,0,0,1,3.3,0Z"/>
          <path id="vol-up" class="cls-8" d="M3.3,0h0a0,0,0,0,1,0,0V52.619a0,0,0,0,1,0,0h0a3.3,3.3,0,0,1-3.3-3.3V3.3A3.3,3.3,0,0,1,3.3,0Z" transform="translate(0 51.797)"/>
          <path id="vol-down" class="cls-8" d="M3.3,0h0a0,0,0,0,1,0,0V52.619a0,0,0,0,1,0,0h0a3.3,3.3,0,0,1-3.3-3.3V3.3A3.3,3.3,0,0,1,3.3,0Z" transform="translate(0 114.282)"/>
        </g>
        <g id="SCREEN-3" data-name="SCREEN" class="cls-9" transform="translate(26 12.307)">
          <path class="cls-11" d="M 269.34130859375 679.0964965820312 L 39.9999885559082 679.0964965820312 C 34.5356559753418 679.0964965820312 29.23332023620605 678.0250854492188 24.24015426635742 675.9119873046875 C 19.41790390014648 673.8712768554688 15.08657073974609 670.9501953125 11.36640453338623 667.2301025390625 C 7.646320819854736 663.5099487304688 4.725237846374512 659.1785888671875 2.684487581253052 654.3563232421875 C 0.5714042782783508 649.3631591796875 -0.5000123977661133 644.0608520507812 -0.5000123977661133 638.5964965820312 L -0.5000123977661133 50.69316864013672 C -0.5000123977661133 45.22883605957031 0.5714042782783508 39.9265022277832 2.684487581253052 34.9333381652832 C 4.725237846374512 30.11108589172363 7.646320819854736 25.77975273132324 11.36640453338623 22.05958557128906 C 15.08657073974609 18.33950233459473 19.41790390014648 15.41841983795166 24.24015426635742 13.37766933441162 C 29.23332023620605 11.26458644866943 34.5356559753418 10.19316959381104 39.9999885559082 10.19316959381104 L 64.34298706054688 10.19316959381104 C 64.38990783691406 10.19316959381104 65.50482177734375 10.19958686828613 66.62840270996094 10.75975322723389 C 67.69548797607422 11.29183673858643 68.96756744384766 12.42566967010498 68.96756744384766 14.8059196472168 L 68.96756744384766 22.60459518432617 C 71.20383453369141 25.96180152893066 74.25508117675781 28.80417633056641 77.80049133300781 30.83116912841797 C 81.48015594482422 32.93483734130859 85.51457214355469 34.04683685302734 89.46756744384766 34.04683685302734 L 219.8738250732422 34.04683685302734 L 221.1328277587891 34.04683685302734 C 223.7290649414062 34.04683685302734 226.2479858398438 33.53791809082031 228.6196594238281 32.53425216674805 C 230.9105682373047 31.56475257873535 232.9684906005859 30.17683601379395 234.7361602783203 28.40917015075684 C 236.5038146972656 26.64150238037109 237.8917388916016 24.58366966247559 238.8612365722656 22.29275321960449 C 239.8648986816406 19.92108726501465 240.3738250732422 17.40217018127441 240.3738250732422 14.8059196472168 C 240.3738250732422 12.42566967010498 241.6459045410156 11.29183673858643 242.7129821777344 10.75983619689941 C 243.8365783691406 10.19958686828613 244.9514007568359 10.19316959381104 244.9983215332031 10.19316959381104 L 277.1698303222656 10.19316959381104 L 277.3174743652344 11.17083644866943 L 272.9128723144531 12.53280353546143 C 277.718994140625 12.65999889373779 282.3559875488281 13.64081001281738 286.7123107910156 15.45308685302734 C 291.2547302246094 17.34275245666504 295.3167419433594 20.05941963195801 298.7855834960938 23.52750396728516 C 305.9149780273438 30.65542030334473 309.84130859375 40.30308532714844 309.84130859375 50.69316864013672 L 309.84130859375 638.5964965820312 C 309.84130859375 644.0608520507812 308.7698974609375 649.3631591796875 306.6568298339844 654.3563232421875 C 304.6160583496094 659.1785888671875 301.6949768066406 663.5099487304688 297.9749145507812 667.2301025390625 C 294.2547302246094 670.9501953125 289.9234008789062 673.8712768554688 285.1011657714844 675.9119873046875 C 280.1080017089844 678.0250854492188 274.8056640625 679.0964965820312 269.34130859375 679.0964965820312 Z"/>
          <path class="cls-12" d="M 40 10.69317626953125 C 17.91998291015625 10.69317626953125 0 28.6131591796875 0 50.69317626953125 L 0 638.5964965820312 C 0 660.676513671875 17.91998291015625 678.5964965820312 40 678.5964965820312 L 269.34130859375 678.5964965820312 C 291.4213256835938 678.5964965820312 309.34130859375 660.676513671875 309.34130859375 638.5964965820312 L 309.34130859375 50.69317626953125 C 309.34130859375 29.4271240234375 292.7514038085938 13.01678466796875 271.8365478515625 13.01849365234375 C 271.0359802246094 13.01861572265625 270.225830078125 13.042724609375 269.413330078125 13.09149169921875 L 277.1698303222656 10.69317626953125 L 244.9983215332031 10.69317626953125 C 244.9983215332031 10.69317626953125 240.8737487792969 10.69317626953125 240.8737487792969 14.80584716796875 C 240.8737487792969 25.70281982421875 232.0298156738281 34.54681396484375 221.1328125 34.54681396484375 L 219.8737487792969 34.54681396484375 L 89.46757507324219 34.54681396484375 C 81.10893249511719 34.54681396484375 73.05216979980469 29.7264404296875 68.46757507324219 22.75506591796875 L 68.46757507324219 34.54681396484375 L 64.88948059082031 13.85394287109375 C 65.44039916992188 17.03997802734375 66.69410705566406 20.058349609375 68.46757507324219 22.75506591796875 L 68.46757507324219 14.80584716796875 C 68.46757507324219 10.69317626953125 64.34298706054688 10.69317626953125 64.34298706054688 10.69317626953125 L 40 10.69317626953125 M 40 9.69317626953125 L 64.34298706054688 9.69317626953125 C 64.47265625 9.69317626953125 65.6444091796875 9.71051025390625 66.85148620605469 10.31231689453125 C 67.60781860351562 10.68939208984375 68.21440124511719 11.2142333984375 68.65440368652344 11.8724365234375 C 69.19398498535156 12.679443359375 69.46757507324219 13.66632080078125 69.46757507324219 14.80584716796875 L 69.46757507324219 22.45245361328125 C 71.65312194824219 25.69073486328125 74.61460876464844 28.433837890625 78.04866027832031 30.3970947265625 C 81.65281677246094 32.4576416015625 85.60148620605469 33.54681396484375 89.46757507324219 33.54681396484375 L 219.8737487792969 33.54681396484375 L 221.1328125 33.54681396484375 C 223.6617431640625 33.54681396484375 226.1150817871094 33.05126953125 228.4247436523438 32.07373046875 C 230.6561584472656 31.1295166015625 232.6605682373047 29.777587890625 234.382568359375 28.05560302734375 C 236.1044921875 26.33367919921875 237.4564056396484 24.32916259765625 238.4006652832031 22.09783935546875 C 239.3781433105469 19.7880859375 239.8737487792969 17.33477783203125 239.8737487792969 14.80584716796875 C 239.8737487792969 13.66632080078125 240.1473236083984 12.679443359375 240.6869049072266 11.8724365234375 C 241.1269073486328 11.2142333984375 241.7334899902344 10.68939208984375 242.4898223876953 10.31231689453125 C 243.6968994140625 9.71051025390625 244.86865234375 9.69317626953125 244.9983215332031 9.69317626953125 L 277.1698303222656 9.69317626953125 L 283.7891540527344 9.69317626953125 L 277.4652404785156 11.64849853515625 L 275.6826477050781 12.19970703125 C 279.5690307617188 12.5694580078125 283.3299255371094 13.5037841796875 286.9042358398438 14.99066162109375 C 291.50732421875 16.905517578125 295.6236572265625 19.6585693359375 299.1390686035156 23.17327880859375 C 306.3629150390625 30.39593505859375 310.34130859375 40.1693115234375 310.34130859375 50.69317626953125 L 310.34130859375 638.5964965820312 C 310.34130859375 644.1281127929688 309.2565612792969 649.49609375 307.1172485351562 654.55126953125 C 305.0513305664062 659.4329833984375 302.0943298339844 663.8177490234375 298.3283996582031 667.5835571289062 C 294.5625610351562 671.3494873046875 290.1778259277344 674.3065185546875 285.2960815429688 676.3724365234375 C 280.2409057617188 678.5117797851562 274.8728942871094 679.5964965820312 269.34130859375 679.5964965820312 L 40 679.5964965820312 C 34.46841430664062 679.5964965820312 29.10040283203125 678.5117797851562 24.04522705078125 676.3724365234375 C 19.16348266601562 674.3065185546875 14.77874755859375 671.3494873046875 11.01290893554688 667.5835571289062 C 7.246978759765625 663.8177490234375 4.28997802734375 659.4329833984375 2.22406005859375 654.55126953125 C 0.084747314453125 649.49609375 -1 644.1281127929688 -1 638.5964965820312 L -1 50.69317626953125 C -1 45.16156005859375 0.084747314453125 39.7935791015625 2.22406005859375 34.7384033203125 C 4.28997802734375 29.856689453125 7.246978759765625 25.471923828125 11.01290893554688 21.70611572265625 C 14.77874755859375 17.940185546875 19.16348266601562 14.983154296875 24.04522705078125 12.917236328125 C 29.10040283203125 10.77789306640625 34.46841430664062 9.69317626953125 40 9.69317626953125 Z"/>
        </g>
      </g>
    </g>
  </g>
</svg>
