<svg xmlns="http://www.w3.org/2000/svg" width="60" height="60" viewBox="0 0 60 60">
  <g id="Icon_20_Grey_image" data-name="Icon / 20 / Grey / image" transform="translate(0.178)">
    <rect id="Icon_20_Grey_image_background" data-name="Icon / 20 / Grey / image background" width="60" height="60" transform="translate(-0.178)" fill="rgba(0,0,0,0)"/>
    <path id="Shape" d="M52.335,60H7.668A7.675,7.675,0,0,1,0,52.335V7.668A7.677,7.677,0,0,1,7.668,0H52.335A7.675,7.675,0,0,1,60,7.668V52.335A7.674,7.674,0,0,1,52.335,60ZM15.906,35.719a1.15,1.15,0,0,0-.74.273l-11.632,9.9v6.448a4.137,4.137,0,0,0,4.134,4.131H52.335a4.136,4.136,0,0,0,4.131-4.131V38.4L45.312,24.67a1.121,1.121,0,0,0-.829-.421h-.062a1.111,1.111,0,0,0-.8.338L26.3,41.921a1.766,1.766,0,0,1-2.379.111l-7.287-6.051A1.148,1.148,0,0,0,15.906,35.719ZM7.668,3.534A4.138,4.138,0,0,0,3.534,7.668v33.58L12.876,33.3a4.664,4.664,0,0,1,6.018-.035l6.048,5.019,16.17-16.2a4.717,4.717,0,0,1,3.312-1.372q.119,0,.238.006a4.67,4.67,0,0,1,3.391,1.723L56.466,32.8V7.668a4.137,4.137,0,0,0-4.131-4.134Z" transform="translate(-0.178)" fill="#9dafbd"/>
    <path id="Shape-2" data-name="Shape" d="M8.529,17.056a8.528,8.528,0,1,1,8.527-8.527A8.538,8.538,0,0,1,8.529,17.056Zm0-13.519a4.991,4.991,0,1,0,4.99,4.992A5,5,0,0,0,8.529,3.537Z" transform="translate(10.435 7.425)" fill="#9dafbd"/>
  </g>
</svg>
